<?xml version="1.0" encoding="UTF-8" standalone="no"?><svg xmlns="http://www.w3.org/2000/svg" xmlns:xlink="http://www.w3.org/1999/xlink" contentStyleType="text/css" height="717px" preserveAspectRatio="none" style="width:3129px;height:717px;background:#FFFFFF;" version="1.1" viewBox="0 0 3129 717" width="3129px" zoomAndPan="magnify"><defs/><g><!--MD5=[8fad4df13eb0372d0d493b51b9ecc031]
class ICanvas--><g id="elem_ICanvas"><rect codeLine="1" fill="#F1F1F1" height="129.4844" id="ICanvas" rx="2.5" ry="2.5" style="stroke:#181818;stroke-width:0.5;" width="470" x="769.5" y="48"/><ellipse cx="973.75" cy="64" fill="#B4A7E5" rx="11" ry="11" style="stroke:#181818;stroke-width:1.0;"/><path d="M969.6719,59.7656 L969.6719,57.6094 L977.0625,57.6094 L977.0625,59.7656 L974.5938,59.7656 L974.5938,67.8438 L977.0625,67.8438 L977.0625,70 L969.6719,70 L969.6719,67.8438 L972.1406,67.8438 L972.1406,59.7656 L969.6719,59.7656 Z " fill="#000000"/><text fill="#000000" font-family="sans-serif" font-size="14" font-style="italic" lengthAdjust="spacing" textLength="53" x="994.25" y="68.8467">ICanvas</text><line style="stroke:#181818;stroke-width:0.5;" x1="770.5" x2="1238.5" y1="80" y2="80"/><line style="stroke:#181818;stroke-width:0.5;" x1="770.5" x2="1238.5" y1="88" y2="88"/><ellipse cx="780.5" cy="101.6484" fill="#84BE84" rx="3" ry="3" style="stroke:#038048;stroke-width:1.0;"/><text fill="#000000" font-family="sans-serif" font-size="14" lengthAdjust="spacing" textLength="151" x="789.5" y="104.9951">SetColor(color: string)</text><ellipse cx="780.5" cy="117.9453" fill="#84BE84" rx="3" ry="3" style="stroke:#038048;stroke-width:1.0;"/><text fill="#000000" font-family="sans-serif" font-size="14" lengthAdjust="spacing" textLength="201" x="789.5" y="121.292">MoveTo(x: double, y: double)</text><ellipse cx="780.5" cy="134.2422" fill="#84BE84" rx="3" ry="3" style="stroke:#038048;stroke-width:1.0;"/><text fill="#000000" font-family="sans-serif" font-size="14" lengthAdjust="spacing" textLength="192" x="789.5" y="137.5889">LineTo(x: double, y: double)</text><ellipse cx="780.5" cy="150.5391" fill="#84BE84" rx="3" ry="3" style="stroke:#038048;stroke-width:1.0;"/><text fill="#000000" font-family="sans-serif" font-size="14" lengthAdjust="spacing" textLength="395" x="789.5" y="153.8857">DrawEllipse(cx: double, cy: double, rx: double, ry: double)</text><ellipse cx="780.5" cy="166.8359" fill="#84BE84" rx="3" ry="3" style="stroke:#038048;stroke-width:1.0;"/><text fill="#000000" font-family="sans-serif" font-size="14" lengthAdjust="spacing" textLength="444" x="789.5" y="170.1826">DrawText(left: double, top: double, fontSize: double, text: string)</text></g><!--MD5=[29fea96d896c15a4e3189751ef8083fe]
class IShape--><g id="elem_IShape"><rect codeLine="9" fill="#F1F1F1" height="178.375" id="IShape" rx="2.5" ry="2.5" style="stroke:#181818;stroke-width:0.5;" width="227" x="1275" y="23.5"/><ellipse cx="1360.75" cy="39.5" fill="#B4A7E5" rx="11" ry="11" style="stroke:#181818;stroke-width:1.0;"/><path d="M1356.6719,35.2656 L1356.6719,33.1094 L1364.0625,33.1094 L1364.0625,35.2656 L1361.5938,35.2656 L1361.5938,43.3438 L1364.0625,43.3438 L1364.0625,45.5 L1356.6719,45.5 L1356.6719,43.3438 L1359.1406,43.3438 L1359.1406,35.2656 L1356.6719,35.2656 Z " fill="#000000"/><text fill="#000000" font-family="sans-serif" font-size="14" font-style="italic" lengthAdjust="spacing" textLength="47" x="1381.25" y="44.3467">IShape</text><line style="stroke:#181818;stroke-width:0.5;" x1="1276" x2="1501" y1="55.5" y2="55.5"/><line style="stroke:#181818;stroke-width:0.5;" x1="1276" x2="1501" y1="63.5" y2="63.5"/><ellipse cx="1286" cy="77.1484" fill="#84BE84" rx="3" ry="3" style="stroke:#038048;stroke-width:1.0;"/><text fill="#000000" font-family="sans-serif" font-size="14" lengthAdjust="spacing" textLength="198" x="1295" y="80.4951">Draw(canvas: ICanvas) const</text><ellipse cx="1286" cy="93.4453" fill="#84BE84" rx="3" ry="3" style="stroke:#038048;stroke-width:1.0;"/><text fill="#000000" font-family="sans-serif" font-size="14" lengthAdjust="spacing" textLength="201" x="1295" y="96.792">Move(dx: double, dy: double)</text><ellipse cx="1286" cy="109.7422" fill="#84BE84" rx="3" ry="3" style="stroke:#038048;stroke-width:1.0;"/><text fill="#000000" font-family="sans-serif" font-size="14" lengthAdjust="spacing" textLength="182" x="1295" y="113.0889">Clone(newId: string) const</text><ellipse cx="1286" cy="126.0391" fill="#84BE84" rx="3" ry="3" style="stroke:#038048;stroke-width:1.0;"/><text fill="#000000" font-family="sans-serif" font-size="14" lengthAdjust="spacing" textLength="90" x="1295" y="129.3857">GetId() const</text><ellipse cx="1286" cy="142.3359" fill="#84BE84" rx="3" ry="3" style="stroke:#038048;stroke-width:1.0;"/><text fill="#000000" font-family="sans-serif" font-size="14" lengthAdjust="spacing" textLength="114" x="1295" y="145.6826">GetColor() const</text><ellipse cx="1286" cy="158.6328" fill="#84BE84" rx="3" ry="3" style="stroke:#038048;stroke-width:1.0;"/><text fill="#000000" font-family="sans-serif" font-size="14" lengthAdjust="spacing" textLength="151" x="1295" y="161.9795">SetColor(color: string)</text><ellipse cx="1286" cy="174.9297" fill="#84BE84" rx="3" ry="3" style="stroke:#038048;stroke-width:1.0;"/><text fill="#000000" font-family="sans-serif" font-size="14" lengthAdjust="spacing" textLength="112" x="1295" y="178.2764">GetType() const</text><ellipse cx="1286" cy="191.2266" fill="#84BE84" rx="3" ry="3" style="stroke:#038048;stroke-width:1.0;"/><text fill="#000000" font-family="sans-serif" font-size="14" lengthAdjust="spacing" textLength="129" x="1295" y="194.5732">GetParams() const</text></g><!--MD5=[426e75666daf533f17226ff4c87e20fd]
class Shape--><g id="elem_Shape"><rect codeLine="20" fill="#F1F1F1" height="178.375" id="Shape" rx="2.5" ry="2.5" style="stroke:#181818;stroke-width:0.5;" width="227" x="1443" y="278"/><ellipse cx="1530.25" cy="294" fill="#A9DCDF" rx="11" ry="11" style="stroke:#181818;stroke-width:1.0;"/><path d="M1530.3594,289.3438 L1529.2031,294.4219 L1531.5313,294.4219 L1530.3594,289.3438 Z M1528.875,287.1094 L1531.8594,287.1094 L1535.2188,299.5 L1532.7656,299.5 L1532,296.4375 L1528.7188,296.4375 L1527.9688,299.5 L1525.5313,299.5 L1528.875,287.1094 Z " fill="#000000"/><text fill="#000000" font-family="sans-serif" font-size="14" font-style="italic" lengthAdjust="spacing" textLength="44" x="1550.75" y="298.8467">Shape</text><line style="stroke:#181818;stroke-width:0.5;" x1="1444" x2="1669" y1="310" y2="310"/><line style="stroke:#181818;stroke-width:0.5;" x1="1444" x2="1669" y1="318" y2="318"/><ellipse cx="1454" cy="331.6484" fill="#84BE84" rx="3" ry="3" style="stroke:#038048;stroke-width:1.0;"/><text fill="#000000" font-family="sans-serif" font-size="14" lengthAdjust="spacing" textLength="198" x="1463" y="334.9951">Draw(canvas: ICanvas) const</text><ellipse cx="1454" cy="347.9453" fill="#84BE84" rx="3" ry="3" style="stroke:#038048;stroke-width:1.0;"/><text fill="#000000" font-family="sans-serif" font-size="14" lengthAdjust="spacing" textLength="201" x="1463" y="351.292">Move(dx: double, dy: double)</text><ellipse cx="1454" cy="364.2422" fill="#84BE84" rx="3" ry="3" style="stroke:#038048;stroke-width:1.0;"/><text fill="#000000" font-family="sans-serif" font-size="14" lengthAdjust="spacing" textLength="182" x="1463" y="367.5889">Clone(newId: string) const</text><ellipse cx="1454" cy="380.5391" fill="#84BE84" rx="3" ry="3" style="stroke:#038048;stroke-width:1.0;"/><text fill="#000000" font-family="sans-serif" font-size="14" lengthAdjust="spacing" textLength="90" x="1463" y="383.8857">GetId() const</text><ellipse cx="1454" cy="396.8359" fill="#84BE84" rx="3" ry="3" style="stroke:#038048;stroke-width:1.0;"/><text fill="#000000" font-family="sans-serif" font-size="14" lengthAdjust="spacing" textLength="114" x="1463" y="400.1826">GetColor() const</text><ellipse cx="1454" cy="413.1328" fill="#84BE84" rx="3" ry="3" style="stroke:#038048;stroke-width:1.0;"/><text fill="#000000" font-family="sans-serif" font-size="14" lengthAdjust="spacing" textLength="151" x="1463" y="416.4795">SetColor(color: string)</text><ellipse cx="1454" cy="429.4297" fill="#84BE84" rx="3" ry="3" style="stroke:#038048;stroke-width:1.0;"/><text fill="#000000" font-family="sans-serif" font-size="14" lengthAdjust="spacing" textLength="112" x="1463" y="432.7764">GetType() const</text><ellipse cx="1454" cy="445.7266" fill="#84BE84" rx="3" ry="3" style="stroke:#038048;stroke-width:1.0;"/><text fill="#000000" font-family="sans-serif" font-size="14" lengthAdjust="spacing" textLength="129" x="1463" y="449.0732">GetParams() const</text></g><!--MD5=[a7f9118cae7621dd25d25149752faef0]
class Circle--><g id="elem_Circle"><rect codeLine="31" fill="#F1F1F1" height="145.7813" id="Circle" rx="2.5" ry="2.5" style="stroke:#181818;stroke-width:0.5;" width="475" x="7" y="540.5"/><ellipse cx="221.25" cy="556.5" fill="#ADD1B2" rx="11" ry="11" style="stroke:#181818;stroke-width:1.0;"/><path d="M224.2188,562.1406 Q223.6406,562.4375 223,562.5781 Q222.3594,562.7344 221.6563,562.7344 Q219.1563,562.7344 217.8281,561.0938 Q216.5156,559.4375 216.5156,556.3125 Q216.5156,553.1875 217.8281,551.5313 Q219.1563,549.875 221.6563,549.875 Q222.3594,549.875 223,550.0313 Q223.6563,550.1875 224.2188,550.4844 L224.2188,553.2031 Q223.5938,552.625 223,552.3594 Q222.4063,552.0781 221.7813,552.0781 Q220.4375,552.0781 219.75,553.1563 Q219.0625,554.2188 219.0625,556.3125 Q219.0625,558.4063 219.75,559.4844 Q220.4375,560.5469 221.7813,560.5469 Q222.4063,560.5469 223,560.2813 Q223.5938,560 224.2188,559.4219 L224.2188,562.1406 Z " fill="#000000"/><text fill="#000000" font-family="sans-serif" font-size="14" lengthAdjust="spacing" textLength="38" x="241.75" y="561.3467">Circle</text><line style="stroke:#181818;stroke-width:0.5;" x1="8" x2="481" y1="572.5" y2="572.5"/><rect fill="none" height="6" style="stroke:#C82930;stroke-width:1.0;" width="6" x="15" y="583.1484"/><text fill="#000000" font-family="sans-serif" font-size="14" lengthAdjust="spacing" textLength="60" x="27" y="589.4951">id: string</text><rect fill="none" height="6" style="stroke:#C82930;stroke-width:1.0;" width="6" x="15" y="599.4453"/><text fill="#000000" font-family="sans-serif" font-size="14" lengthAdjust="spacing" textLength="82" x="27" y="605.792">color: string</text><rect fill="none" height="6" style="stroke:#C82930;stroke-width:1.0;" width="6" x="15" y="615.7422"/><text fill="#000000" font-family="sans-serif" font-size="14" lengthAdjust="spacing" textLength="64" x="27" y="622.0889">x: double</text><rect fill="none" height="6" style="stroke:#C82930;stroke-width:1.0;" width="6" x="15" y="632.0391"/><text fill="#000000" font-family="sans-serif" font-size="14" lengthAdjust="spacing" textLength="64" x="27" y="638.3857">y: double</text><rect fill="none" height="6" style="stroke:#C82930;stroke-width:1.0;" width="6" x="15" y="648.3359"/><text fill="#000000" font-family="sans-serif" font-size="14" lengthAdjust="spacing" textLength="99" x="27" y="654.6826">radius: double</text><line style="stroke:#181818;stroke-width:0.5;" x1="8" x2="481" y1="661.9844" y2="661.9844"/><ellipse cx="18" cy="675.6328" fill="#84BE84" rx="3" ry="3" style="stroke:#038048;stroke-width:1.0;"/><text fill="#000000" font-family="sans-serif" font-size="14" lengthAdjust="spacing" textLength="449" x="27" y="678.9795">Circle(id: string, color: string, x: double, y: double, radius: double)</text></g><!--MD5=[b5313cd49da22b0744b541f414f8445e]
class Rectangle--><g id="elem_Rectangle"><rect codeLine="40" fill="#F1F1F1" height="162.0781" id="Rectangle" rx="2.5" ry="2.5" style="stroke:#181818;stroke-width:0.5;" width="641" x="517" y="532.5"/><ellipse cx="798.25" cy="548.5" fill="#ADD1B2" rx="11" ry="11" style="stroke:#181818;stroke-width:1.0;"/><path d="M801.2188,554.1406 Q800.6406,554.4375 800,554.5781 Q799.3594,554.7344 798.6563,554.7344 Q796.1563,554.7344 794.8281,553.0938 Q793.5156,551.4375 793.5156,548.3125 Q793.5156,545.1875 794.8281,543.5313 Q796.1563,541.875 798.6563,541.875 Q799.3594,541.875 800,542.0313 Q800.6563,542.1875 801.2188,542.4844 L801.2188,545.2031 Q800.5938,544.625 800,544.3594 Q799.4063,544.0781 798.7813,544.0781 Q797.4375,544.0781 796.75,545.1563 Q796.0625,546.2188 796.0625,548.3125 Q796.0625,550.4063 796.75,551.4844 Q797.4375,552.5469 798.7813,552.5469 Q799.4063,552.5469 800,552.2813 Q800.5938,552 801.2188,551.4219 L801.2188,554.1406 Z " fill="#000000"/><text fill="#000000" font-family="sans-serif" font-size="14" lengthAdjust="spacing" textLength="70" x="818.75" y="553.3467">Rectangle</text><line style="stroke:#181818;stroke-width:0.5;" x1="518" x2="1157" y1="564.5" y2="564.5"/><rect fill="none" height="6" style="stroke:#C82930;stroke-width:1.0;" width="6" x="525" y="575.1484"/><text fill="#000000" font-family="sans-serif" font-size="14" lengthAdjust="spacing" textLength="60" x="537" y="581.4951">id: string</text><rect fill="none" height="6" style="stroke:#C82930;stroke-width:1.0;" width="6" x="525" y="591.4453"/><text fill="#000000" font-family="sans-serif" font-size="14" lengthAdjust="spacing" textLength="82" x="537" y="597.792">color: string</text><rect fill="none" height="6" style="stroke:#C82930;stroke-width:1.0;" width="6" x="525" y="607.7422"/><text fill="#000000" font-family="sans-serif" font-size="14" lengthAdjust="spacing" textLength="78" x="537" y="614.0889">left: double</text><rect fill="none" height="6" style="stroke:#C82930;stroke-width:1.0;" width="6" x="525" y="624.0391"/><text fill="#000000" font-family="sans-serif" font-size="14" lengthAdjust="spacing" textLength="80" x="537" y="630.3857">top: double</text><rect fill="none" height="6" style="stroke:#C82930;stroke-width:1.0;" width="6" x="525" y="640.3359"/><text fill="#000000" font-family="sans-serif" font-size="14" lengthAdjust="spacing" textLength="94" x="537" y="646.6826">width: double</text><rect fill="none" height="6" style="stroke:#C82930;stroke-width:1.0;" width="6" x="525" y="656.6328"/><text fill="#000000" font-family="sans-serif" font-size="14" lengthAdjust="spacing" textLength="101" x="537" y="662.9795">height: double</text><line style="stroke:#181818;stroke-width:0.5;" x1="518" x2="1157" y1="670.2813" y2="670.2813"/><ellipse cx="528" cy="683.9297" fill="#84BE84" rx="3" ry="3" style="stroke:#038048;stroke-width:1.0;"/><text fill="#000000" font-family="sans-serif" font-size="14" lengthAdjust="spacing" textLength="615" x="537" y="687.2764">Rectangle(id: string, color: string, left: double, top: double, width: double, height: double)</text></g><!--MD5=[40b067e448d061f8c1f714bff454de58]
class Triangle--><g id="elem_Triangle"><rect codeLine="50" fill="#F1F1F1" height="194.6719" id="Triangle" rx="2.5" ry="2.5" style="stroke:#181818;stroke-width:0.5;" width="727" x="1193" y="516"/><ellipse cx="1524.75" cy="532" fill="#ADD1B2" rx="11" ry="11" style="stroke:#181818;stroke-width:1.0;"/><path d="M1527.7188,537.6406 Q1527.1406,537.9375 1526.5,538.0781 Q1525.8594,538.2344 1525.1563,538.2344 Q1522.6563,538.2344 1521.3281,536.5938 Q1520.0156,534.9375 1520.0156,531.8125 Q1520.0156,528.6875 1521.3281,527.0313 Q1522.6563,525.375 1525.1563,525.375 Q1525.8594,525.375 1526.5,525.5313 Q1527.1563,525.6875 1527.7188,525.9844 L1527.7188,528.7031 Q1527.0938,528.125 1526.5,527.8594 Q1525.9063,527.5781 1525.2813,527.5781 Q1523.9375,527.5781 1523.25,528.6563 Q1522.5625,529.7188 1522.5625,531.8125 Q1522.5625,533.9063 1523.25,534.9844 Q1523.9375,536.0469 1525.2813,536.0469 Q1525.9063,536.0469 1526.5,535.7813 Q1527.0938,535.5 1527.7188,534.9219 L1527.7188,537.6406 Z " fill="#000000"/><text fill="#000000" font-family="sans-serif" font-size="14" lengthAdjust="spacing" textLength="55" x="1545.25" y="536.8467">Triangle</text><line style="stroke:#181818;stroke-width:0.5;" x1="1194" x2="1919" y1="548" y2="548"/><rect fill="none" height="6" style="stroke:#C82930;stroke-width:1.0;" width="6" x="1201" y="558.6484"/><text fill="#000000" font-family="sans-serif" font-size="14" lengthAdjust="spacing" textLength="60" x="1213" y="564.9951">id: string</text><rect fill="none" height="6" style="stroke:#C82930;stroke-width:1.0;" width="6" x="1201" y="574.9453"/><text fill="#000000" font-family="sans-serif" font-size="14" lengthAdjust="spacing" textLength="82" x="1213" y="581.292">color: string</text><rect fill="none" height="6" style="stroke:#C82930;stroke-width:1.0;" width="6" x="1201" y="591.2422"/><text fill="#000000" font-family="sans-serif" font-size="14" lengthAdjust="spacing" textLength="73" x="1213" y="597.5889">x1: double</text><rect fill="none" height="6" style="stroke:#C82930;stroke-width:1.0;" width="6" x="1201" y="607.5391"/><text fill="#000000" font-family="sans-serif" font-size="14" lengthAdjust="spacing" textLength="73" x="1213" y="613.8857">y1: double</text><rect fill="none" height="6" style="stroke:#C82930;stroke-width:1.0;" width="6" x="1201" y="623.8359"/><text fill="#000000" font-family="sans-serif" font-size="14" lengthAdjust="spacing" textLength="73" x="1213" y="630.1826">x2: double</text><rect fill="none" height="6" style="stroke:#C82930;stroke-width:1.0;" width="6" x="1201" y="640.1328"/><text fill="#000000" font-family="sans-serif" font-size="14" lengthAdjust="spacing" textLength="73" x="1213" y="646.4795">y2: double</text><rect fill="none" height="6" style="stroke:#C82930;stroke-width:1.0;" width="6" x="1201" y="656.4297"/><text fill="#000000" font-family="sans-serif" font-size="14" lengthAdjust="spacing" textLength="73" x="1213" y="662.7764">x3: double</text><rect fill="none" height="6" style="stroke:#C82930;stroke-width:1.0;" width="6" x="1201" y="672.7266"/><text fill="#000000" font-family="sans-serif" font-size="14" lengthAdjust="spacing" textLength="73" x="1213" y="679.0732">y3: double</text><line style="stroke:#181818;stroke-width:0.5;" x1="1194" x2="1919" y1="686.375" y2="686.375"/><ellipse cx="1204" cy="700.0234" fill="#84BE84" rx="3" ry="3" style="stroke:#038048;stroke-width:1.0;"/><text fill="#000000" font-family="sans-serif" font-size="14" lengthAdjust="spacing" textLength="701" x="1213" y="703.3701">Triangle(id: string, color: string, x1: double, y1: double, x2: double, y2: double, x3: double, y3: double)</text></g><!--MD5=[736dfa021baaf4f381c9890dd397bfe9]
class Line--><g id="elem_Line"><rect codeLine="62" fill="#F1F1F1" height="162.0781" id="Line" rx="2.5" ry="2.5" style="stroke:#181818;stroke-width:0.5;" width="538" x="1955.5" y="532.5"/><ellipse cx="2206.25" cy="548.5" fill="#ADD1B2" rx="11" ry="11" style="stroke:#181818;stroke-width:1.0;"/><path d="M2209.2188,554.1406 Q2208.6406,554.4375 2208,554.5781 Q2207.3594,554.7344 2206.6563,554.7344 Q2204.1563,554.7344 2202.8281,553.0938 Q2201.5156,551.4375 2201.5156,548.3125 Q2201.5156,545.1875 2202.8281,543.5313 Q2204.1563,541.875 2206.6563,541.875 Q2207.3594,541.875 2208,542.0313 Q2208.6563,542.1875 2209.2188,542.4844 L2209.2188,545.2031 Q2208.5938,544.625 2208,544.3594 Q2207.4063,544.0781 2206.7813,544.0781 Q2205.4375,544.0781 2204.75,545.1563 Q2204.0625,546.2188 2204.0625,548.3125 Q2204.0625,550.4063 2204.75,551.4844 Q2205.4375,552.5469 2206.7813,552.5469 Q2207.4063,552.5469 2208,552.2813 Q2208.5938,552 2209.2188,551.4219 L2209.2188,554.1406 Z " fill="#000000"/><text fill="#000000" font-family="sans-serif" font-size="14" lengthAdjust="spacing" textLength="28" x="2226.75" y="553.3467">Line</text><line style="stroke:#181818;stroke-width:0.5;" x1="1956.5" x2="2492.5" y1="564.5" y2="564.5"/><rect fill="none" height="6" style="stroke:#C82930;stroke-width:1.0;" width="6" x="1963.5" y="575.1484"/><text fill="#000000" font-family="sans-serif" font-size="14" lengthAdjust="spacing" textLength="60" x="1975.5" y="581.4951">id: string</text><rect fill="none" height="6" style="stroke:#C82930;stroke-width:1.0;" width="6" x="1963.5" y="591.4453"/><text fill="#000000" font-family="sans-serif" font-size="14" lengthAdjust="spacing" textLength="82" x="1975.5" y="597.792">color: string</text><rect fill="none" height="6" style="stroke:#C82930;stroke-width:1.0;" width="6" x="1963.5" y="607.7422"/><text fill="#000000" font-family="sans-serif" font-size="14" lengthAdjust="spacing" textLength="73" x="1975.5" y="614.0889">x1: double</text><rect fill="none" height="6" style="stroke:#C82930;stroke-width:1.0;" width="6" x="1963.5" y="624.0391"/><text fill="#000000" font-family="sans-serif" font-size="14" lengthAdjust="spacing" textLength="73" x="1975.5" y="630.3857">y1: double</text><rect fill="none" height="6" style="stroke:#C82930;stroke-width:1.0;" width="6" x="1963.5" y="640.3359"/><text fill="#000000" font-family="sans-serif" font-size="14" lengthAdjust="spacing" textLength="73" x="1975.5" y="646.6826">x2: double</text><rect fill="none" height="6" style="stroke:#C82930;stroke-width:1.0;" width="6" x="1963.5" y="656.6328"/><text fill="#000000" font-family="sans-serif" font-size="14" lengthAdjust="spacing" textLength="73" x="1975.5" y="662.9795">y2: double</text><line style="stroke:#181818;stroke-width:0.5;" x1="1956.5" x2="2492.5" y1="670.2813" y2="670.2813"/><ellipse cx="1966.5" cy="683.9297" fill="#84BE84" rx="3" ry="3" style="stroke:#038048;stroke-width:1.0;"/><text fill="#000000" font-family="sans-serif" font-size="14" lengthAdjust="spacing" textLength="512" x="1975.5" y="687.2764">Line(id: string, color: string, x1: double, y1: double, x2: double, y2: double)</text></g><!--MD5=[02a8746eb15ecbb4566dafa16ea4db73]
class Text--><g id="elem_Text"><rect codeLine="72" fill="#F1F1F1" height="162.0781" id="Text" rx="2.5" ry="2.5" style="stroke:#181818;stroke-width:0.5;" width="593" x="2529" y="532.5"/><ellipse cx="2806.25" cy="548.5" fill="#ADD1B2" rx="11" ry="11" style="stroke:#181818;stroke-width:1.0;"/><path d="M2809.2188,554.1406 Q2808.6406,554.4375 2808,554.5781 Q2807.3594,554.7344 2806.6563,554.7344 Q2804.1563,554.7344 2802.8281,553.0938 Q2801.5156,551.4375 2801.5156,548.3125 Q2801.5156,545.1875 2802.8281,543.5313 Q2804.1563,541.875 2806.6563,541.875 Q2807.3594,541.875 2808,542.0313 Q2808.6563,542.1875 2809.2188,542.4844 L2809.2188,545.2031 Q2808.5938,544.625 2808,544.3594 Q2807.4063,544.0781 2806.7813,544.0781 Q2805.4375,544.0781 2804.75,545.1563 Q2804.0625,546.2188 2804.0625,548.3125 Q2804.0625,550.4063 2804.75,551.4844 Q2805.4375,552.5469 2806.7813,552.5469 Q2807.4063,552.5469 2808,552.2813 Q2808.5938,552 2809.2188,551.4219 L2809.2188,554.1406 Z " fill="#000000"/><text fill="#000000" font-family="sans-serif" font-size="14" lengthAdjust="spacing" textLength="30" x="2826.75" y="553.3467">Text</text><line style="stroke:#181818;stroke-width:0.5;" x1="2530" x2="3121" y1="564.5" y2="564.5"/><rect fill="none" height="6" style="stroke:#C82930;stroke-width:1.0;" width="6" x="2537" y="575.1484"/><text fill="#000000" font-family="sans-serif" font-size="14" lengthAdjust="spacing" textLength="60" x="2549" y="581.4951">id: string</text><rect fill="none" height="6" style="stroke:#C82930;stroke-width:1.0;" width="6" x="2537" y="591.4453"/><text fill="#000000" font-family="sans-serif" font-size="14" lengthAdjust="spacing" textLength="82" x="2549" y="597.792">color: string</text><rect fill="none" height="6" style="stroke:#C82930;stroke-width:1.0;" width="6" x="2537" y="607.7422"/><text fill="#000000" font-family="sans-serif" font-size="14" lengthAdjust="spacing" textLength="78" x="2549" y="614.0889">left: double</text><rect fill="none" height="6" style="stroke:#C82930;stroke-width:1.0;" width="6" x="2537" y="624.0391"/><text fill="#000000" font-family="sans-serif" font-size="14" lengthAdjust="spacing" textLength="80" x="2549" y="630.3857">top: double</text><rect fill="none" height="6" style="stroke:#C82930;stroke-width:1.0;" width="6" x="2537" y="640.3359"/><text fill="#000000" font-family="sans-serif" font-size="14" lengthAdjust="spacing" textLength="113" x="2549" y="646.6826">fontSize: double</text><rect fill="none" height="6" style="stroke:#C82930;stroke-width:1.0;" width="6" x="2537" y="656.6328"/><text fill="#000000" font-family="sans-serif" font-size="14" lengthAdjust="spacing" textLength="74" x="2549" y="662.9795">text: string</text><line style="stroke:#181818;stroke-width:0.5;" x1="2530" x2="3121" y1="670.2813" y2="670.2813"/><ellipse cx="2540" cy="683.9297" fill="#84BE84" rx="3" ry="3" style="stroke:#038048;stroke-width:1.0;"/><text fill="#000000" font-family="sans-serif" font-size="14" lengthAdjust="spacing" textLength="567" x="2549" y="687.2764">Text(id: string, color: string, left: double, top: double, fontSize: double, text: string)</text></g><!--MD5=[18b89e0834131a909517048318a5909c]
class Picture--><g id="elem_Picture"><rect codeLine="82" fill="#F1F1F1" height="210.9688" id="Picture" rx="2.5" ry="2.5" style="stroke:#181818;stroke-width:0.5;" width="377" x="1537" y="7"/><ellipse cx="1697.25" cy="23" fill="#ADD1B2" rx="11" ry="11" style="stroke:#181818;stroke-width:1.0;"/><path d="M1700.2188,28.6406 Q1699.6406,28.9375 1699,29.0781 Q1698.3594,29.2344 1697.6563,29.2344 Q1695.1563,29.2344 1693.8281,27.5938 Q1692.5156,25.9375 1692.5156,22.8125 Q1692.5156,19.6875 1693.8281,18.0313 Q1695.1563,16.375 1697.6563,16.375 Q1698.3594,16.375 1699,16.5313 Q1699.6563,16.6875 1700.2188,16.9844 L1700.2188,19.7031 Q1699.5938,19.125 1699,18.8594 Q1698.4063,18.5781 1697.7813,18.5781 Q1696.4375,18.5781 1695.75,19.6563 Q1695.0625,20.7188 1695.0625,22.8125 Q1695.0625,24.9063 1695.75,25.9844 Q1696.4375,27.0469 1697.7813,27.0469 Q1698.4063,27.0469 1699,26.7813 Q1699.5938,26.5 1700.2188,25.9219 L1700.2188,28.6406 Z " fill="#000000"/><text fill="#000000" font-family="sans-serif" font-size="14" lengthAdjust="spacing" textLength="48" x="1717.75" y="27.8467">Picture</text><line style="stroke:#181818;stroke-width:0.5;" x1="1538" x2="1913" y1="39" y2="39"/><rect fill="none" height="6" style="stroke:#C82930;stroke-width:1.0;" width="6" x="1545" y="49.6484"/><text fill="#000000" font-family="sans-serif" font-size="14" lengthAdjust="spacing" textLength="171" x="1557" y="55.9951">shapes: vector&lt;Shape&gt;</text><line style="stroke:#181818;stroke-width:0.5;" x1="1538" x2="1913" y1="63.2969" y2="63.2969"/><ellipse cx="1548" cy="76.9453" fill="#84BE84" rx="3" ry="3" style="stroke:#038048;stroke-width:1.0;"/><text fill="#000000" font-family="sans-serif" font-size="14" lengthAdjust="spacing" textLength="177" x="1557" y="80.292">AddShape(shape: Shape)</text><ellipse cx="1548" cy="93.2422" fill="#84BE84" rx="3" ry="3" style="stroke:#038048;stroke-width:1.0;"/><text fill="#000000" font-family="sans-serif" font-size="14" lengthAdjust="spacing" textLength="313" x="1557" y="96.5889">MoveShape(id: string, dx: double, dy: double)</text><ellipse cx="1548" cy="109.5391" fill="#84BE84" rx="3" ry="3" style="stroke:#038048;stroke-width:1.0;"/><text fill="#000000" font-family="sans-serif" font-size="14" lengthAdjust="spacing" textLength="249" x="1557" y="112.8857">MovePicture(dx: double, dy: double)</text><ellipse cx="1548" cy="125.8359" fill="#84BE84" rx="3" ry="3" style="stroke:#038048;stroke-width:1.0;"/><text fill="#000000" font-family="sans-serif" font-size="14" lengthAdjust="spacing" textLength="160" x="1557" y="129.1826">DeleteShape(id: string)</text><ellipse cx="1548" cy="142.1328" fill="#84BE84" rx="3" ry="3" style="stroke:#038048;stroke-width:1.0;"/><text fill="#000000" font-family="sans-serif" font-size="14" lengthAdjust="spacing" textLength="76" x="1557" y="145.4795">List() const</text><ellipse cx="1548" cy="158.4297" fill="#84BE84" rx="3" ry="3" style="stroke:#038048;stroke-width:1.0;"/><text fill="#000000" font-family="sans-serif" font-size="14" lengthAdjust="spacing" textLength="250" x="1557" y="161.7764">ChangeColor(id: string, color: string)</text><ellipse cx="1548" cy="174.7266" fill="#84BE84" rx="3" ry="3" style="stroke:#038048;stroke-width:1.0;"/><text fill="#000000" font-family="sans-serif" font-size="14" lengthAdjust="spacing" textLength="351" x="1557" y="178.0732">ChangeShape(id: string, params: vector&lt;double&gt;)</text><ellipse cx="1548" cy="191.0234" fill="#84BE84" rx="3" ry="3" style="stroke:#038048;stroke-width:1.0;"/><text fill="#000000" font-family="sans-serif" font-size="14" lengthAdjust="spacing" textLength="198" x="1557" y="194.3701">Draw(canvas: ICanvas) const</text><ellipse cx="1548" cy="207.3203" fill="#84BE84" rx="3" ry="3" style="stroke:#038048;stroke-width:1.0;"/><text fill="#000000" font-family="sans-serif" font-size="14" lengthAdjust="spacing" textLength="251" x="1557" y="210.667">CloneShape(id: string, newId: string)</text></g><!--MD5=[4f7acce024bb46cbb3ba8141c67ba62b]
reverse link IShape to Shape--><g id="link_IShape_Shape"><path d="M1458.37,218.51 C1471.48,238.21 1485.05,258.61 1497.77,277.74 " fill="none" id="IShape-backto-Shape" style="stroke:#181818;stroke-width:1.0;stroke-dasharray:7.0,7.0;"/><polygon fill="none" points="1452.51,222.34,1447.26,201.81,1464.16,214.59,1452.51,222.34" style="stroke:#181818;stroke-width:1.0;"/></g><!--MD5=[d637a7d0c5b779627461b5a6979d5756]
reverse link Shape to Circle--><g id="link_Shape_Circle"><path d="M1422.48,377.16 C1219.99,393.14 825.13,432.7 499.5,516 C473.25,522.72 445.98,531.25 419.47,540.46 " fill="none" id="Shape-backto-Circle" style="stroke:#181818;stroke-width:1.0;"/><polygon fill="none" points="1422.17,370.16,1442.65,375.59,1423.25,384.12,1422.17,370.16" style="stroke:#181818;stroke-width:1.0;"/></g><!--MD5=[793668fe740f4b06a80dd095381d024c]
reverse link Shape to Rectangle--><g id="link_Shape_Rectangle"><path d="M1423.86,413.11 C1325.67,446.5 1189.3,492.87 1072.79,532.49 " fill="none" id="Shape-backto-Rectangle" style="stroke:#181818;stroke-width:1.0;"/><polygon fill="none" points="1421.78,406.42,1442.97,406.61,1426.29,419.67,1421.78,406.42" style="stroke:#181818;stroke-width:1.0;"/></g><!--MD5=[c0c2beb63eebe7551e7e17172f8efeb7]
reverse link Shape to Triangle--><g id="link_Shape_Triangle"><path d="M1556.5,476.51 C1556.5,489.55 1556.5,502.81 1556.5,515.67 " fill="none" id="Shape-backto-Triangle" style="stroke:#181818;stroke-width:1.0;"/><polygon fill="none" points="1549.5,476.27,1556.5,456.27,1563.5,476.27,1549.5,476.27" style="stroke:#181818;stroke-width:1.0;"/></g><!--MD5=[20b3ea960e1d33ad1bd96715a038111f]
reverse link Shape to Line--><g id="link_Shape_Line"><path d="M1688.98,416.49 C1779.31,449.55 1901.06,494.12 2005.65,532.4 " fill="none" id="Shape-backto-Line" style="stroke:#181818;stroke-width:1.0;"/><polygon fill="none" points="1686.57,423.06,1670.2,409.61,1691.38,409.92,1686.57,423.06" style="stroke:#181818;stroke-width:1.0;"/></g><!--MD5=[58529d4c1be6d2fbd0f5399d6fe422b7]
reverse link Shape to Text--><g id="link_Shape_Text"><path d="M1690.27,382.55 C1876.03,404.15 2221.95,449.44 2511.5,516 C2532.76,520.89 2554.68,526.47 2576.58,532.43 " fill="none" id="Shape-backto-Text" style="stroke:#181818;stroke-width:1.0;"/><polygon fill="none" points="1689.4,389.49,1670.34,380.25,1691.01,375.59,1689.4,389.49" style="stroke:#181818;stroke-width:1.0;"/></g><!--MD5=[85e1ed99bca2567070da3715770c1705]
reverse link Picture to Shape--><g id="link_Picture_Shape"><path codeLine="95" d="M1648.04,229.23 C1637.16,245.49 1626.12,261.99 1615.65,277.63 " fill="none" id="Picture-backto-Shape" style="stroke:#181818;stroke-width:1.0;"/><polygon fill="none" points="1655.54,218.02,1648.8785,220.7813,1648.8653,227.9924,1655.5268,225.2311,1655.54,218.02" style="stroke:#181818;stroke-width:1.0;"/></g><!--MD5=[1379f73d5f99ebc97b3d0e1b8c9117da]
@startuml
interface ICanvas {
    + SetColor(color: string)
    + MoveTo(x: double, y: double)
    + LineTo(x: double, y: double)
    + DrawEllipse(cx: double, cy: double, rx: double, ry: double)
    + DrawText(left: double, top: double, fontSize: double, text: string)
}

interface IShape {
    + Draw(canvas: ICanvas) const
    + Move(dx: double, dy: double)
    + Clone(newId: string) const
    + GetId() const
    + GetColor() const
    + SetColor(color: string)
    + GetType() const
    + GetParams() const
}

abstract class Shape implements IShape {
    + Draw(canvas: ICanvas) const
    + Move(dx: double, dy: double)
    + Clone(newId: string) const
    + GetId() const
    + GetColor() const
    + SetColor(color: string)
    + GetType() const
    + GetParams() const
}

class Circle extends Shape {
    - id: string
    - color: string
    - x: double
    - y: double
    - radius: double
    + Circle(id: string, color: string, x: double, y: double, radius: double)
}

class Rectangle extends Shape {
    - id: string
    - color: string
    - left: double
    - top: double
    - width: double
    - height: double
    + Rectangle(id: string, color: string, left: double, top: double, width: double, height: double)
}

class Triangle extends Shape {
    - id: string
    - color: string
    - x1: double
    - y1: double
    - x2: double
    - y2: double
    - x3: double
    - y3: double
    + Triangle(id: string, color: string, x1: double, y1: double, x2: double, y2: double, x3: double, y3: double)
}

class Line extends Shape {
    - id: string
    - color: string
    - x1: double
    - y1: double
    - x2: double
    - y2: double
    + Line(id: string, color: string, x1: double, y1: double, x2: double, y2: double)
}

class Text extends Shape {
    - id: string
    - color: string
    - left: double
    - top: double
    - fontSize: double
    - text: string
    + Text(id: string, color: string, left: double, top: double, fontSize: double, text: string)
}

class Picture {
    - shapes: vector<Shape>
    + AddShape(shape: Shape)
    + MoveShape(id: string, dx: double, dy: double)
    + MovePicture(dx: double, dy: double)
    + DeleteShape(id: string)
    + List() const
    + ChangeColor(id: string, color: string)
    + ChangeShape(id: string, params: vector<double>)
    + Draw(canvas: ICanvas) const
    + CloneShape(id: string, newId: string)
}

Picture o- - Shape
@enduml

PlantUML version 1.2022.7(Mon Aug 22 17:01:30 UTC 2022)
(GPL source distribution)
Java Runtime: OpenJDK Runtime Environment
JVM: OpenJDK 64-Bit Server VM
Default Encoding: UTF-8
Language: en
Country: null
--></g></svg>